<mxfile host="Electron" agent="Mozilla/5.0 (Macintosh; Intel Mac OS X 10_15_7) AppleWebKit/537.36 (KHTML, like Gecko) draw.io/25.0.2 Chrome/128.0.6613.186 Electron/32.2.5 Safari/537.36" version="25.0.2">
  <diagram name="Page-1" id="ojMVX1hyB9Gq-gTau94i">
    <mxGraphModel dx="1664" dy="895" grid="1" gridSize="10" guides="1" tooltips="1" connect="1" arrows="1" fold="1" page="1" pageScale="1" pageWidth="1100" pageHeight="1700" math="0" shadow="0">
      <root>
        <mxCell id="0" />
        <mxCell id="1" parent="0" />
        <mxCell id="IR_KvxWy5Y9YqPARQ_4T-1" value="&lt;b&gt;BedRock Flow&lt;/b&gt;" style="fillColor=none;strokeColor=#5A6C86;dashed=1;verticalAlign=top;fontStyle=0;fontColor=#5A6C86;whiteSpace=wrap;html=1;align=left;" vertex="1" parent="1">
          <mxGeometry x="190" y="293" width="410" height="130" as="geometry" />
        </mxCell>
        <mxCell id="k7ga5irRddmCWI8N22ra-6" value="&lt;div&gt;&lt;b&gt;Whale TV OS&lt;/b&gt;&lt;/div&gt;" style="points=[[0.35,0,0],[0.98,0.51,0],[1,0.71,0],[0.67,1,0],[0,0.795,0],[0,0.65,0]];verticalLabelPosition=bottom;sketch=0;html=1;verticalAlign=top;aspect=fixed;align=center;pointerEvents=1;shape=mxgraph.cisco19.user;fillColor=#005073;strokeColor=none;" parent="1" vertex="1">
          <mxGeometry x="360" y="100" width="50" height="50" as="geometry" />
        </mxCell>
        <mxCell id="k7ga5irRddmCWI8N22ra-7" value="&lt;font style=&quot;font-size: 12px;&quot;&gt;&lt;b&gt;Question&lt;/b&gt;: “&lt;font color=&quot;#3333ff&quot;&gt;建立智像技术支持案例&lt;/font&gt;”&lt;/font&gt;" style="rounded=1;whiteSpace=wrap;html=1;fillColor=#CCCCFF;" parent="1" vertex="1">
          <mxGeometry x="460" y="120" width="230" height="30" as="geometry" />
        </mxCell>
        <mxCell id="k7ga5irRddmCWI8N22ra-8" value="1" style="ellipse;whiteSpace=wrap;html=1;aspect=fixed;strokeWidth=2;fontFamily=Tahoma;spacingBottom=4;spacingRight=2;strokeColor=#d3d3d3;fontStyle=1" parent="1" vertex="1">
          <mxGeometry x="700" y="100" width="20" height="20" as="geometry" />
        </mxCell>
        <mxCell id="k7ga5irRddmCWI8N22ra-11" value="&lt;b&gt;Agent&lt;/b&gt;" style="sketch=0;points=[[0,0,0],[0.25,0,0],[0.5,0,0],[0.75,0,0],[1,0,0],[0,1,0],[0.25,1,0],[0.5,1,0],[0.75,1,0],[1,1,0],[0,0.25,0],[0,0.5,0],[0,0.75,0],[1,0.25,0],[1,0.5,0],[1,0.75,0]];outlineConnect=0;fontColor=#232F3E;fillColor=#01A88D;strokeColor=#ffffff;dashed=0;verticalLabelPosition=bottom;verticalAlign=top;align=center;html=1;fontSize=12;fontStyle=0;aspect=fixed;shape=mxgraph.aws4.resourceIcon;resIcon=mxgraph.aws4.bedrock;" parent="1" vertex="1">
          <mxGeometry x="355" y="323" width="60" height="60" as="geometry" />
        </mxCell>
        <mxCell id="k7ga5irRddmCWI8N22ra-12" value="&lt;b&gt;AWS Bedrock FM&lt;/b&gt;" style="sketch=0;outlineConnect=0;fontColor=#232F3E;gradientColor=none;fillColor=#01A88D;strokeColor=none;dashed=0;verticalLabelPosition=bottom;verticalAlign=top;align=center;html=1;fontSize=12;fontStyle=0;aspect=fixed;pointerEvents=1;shape=mxgraph.aws4.sagemaker_model;" parent="1" vertex="1">
          <mxGeometry x="350" y="500" width="60" height="60" as="geometry" />
        </mxCell>
        <mxCell id="k7ga5irRddmCWI8N22ra-14" value="&lt;b&gt;Prompt&lt;/b&gt;" style="swimlane;fontStyle=0;childLayout=stackLayout;horizontal=1;startSize=30;horizontalStack=0;resizeParent=1;resizeParentMax=0;resizeLast=0;collapsible=1;marginBottom=0;whiteSpace=wrap;html=1;align=center;fillColor=#fff2cc;strokeColor=#d6b656;" parent="1" vertex="1">
          <mxGeometry x="70" y="530" width="190" height="200" as="geometry">
            <mxRectangle x="110" y="250" width="80" height="30" as="alternateBounds" />
          </mxGeometry>
        </mxCell>
        <mxCell id="k7ga5irRddmCWI8N22ra-15" value="Task" style="text;strokeColor=default;fillColor=none;align=center;verticalAlign=middle;spacingLeft=4;spacingRight=4;overflow=hidden;points=[[0,0.5],[1,0.5]];portConstraint=eastwest;rotatable=0;whiteSpace=wrap;html=1;" parent="k7ga5irRddmCWI8N22ra-14" vertex="1">
          <mxGeometry y="30" width="190" height="30" as="geometry" />
        </mxCell>
        <mxCell id="k7ga5irRddmCWI8N22ra-16" value="Action Group/Knowledge Base" style="text;strokeColor=default;fillColor=none;align=center;verticalAlign=middle;spacingLeft=4;spacingRight=4;overflow=hidden;points=[[0,0.5],[1,0.5]];portConstraint=eastwest;rotatable=0;whiteSpace=wrap;html=1;" parent="k7ga5irRddmCWI8N22ra-14" vertex="1">
          <mxGeometry y="60" width="190" height="30" as="geometry" />
        </mxCell>
        <mxCell id="k7ga5irRddmCWI8N22ra-17" value="Conversation History" style="text;strokeColor=default;fillColor=none;align=center;verticalAlign=middle;spacingLeft=4;spacingRight=4;overflow=hidden;points=[[0,0.5],[1,0.5]];portConstraint=eastwest;rotatable=0;whiteSpace=wrap;html=1;" parent="k7ga5irRddmCWI8N22ra-14" vertex="1">
          <mxGeometry y="90" width="190" height="30" as="geometry" />
        </mxCell>
        <mxCell id="k7ga5irRddmCWI8N22ra-18" value="&lt;b&gt;&lt;font color=&quot;#67ab9f&quot;&gt;Instructions&lt;/font&gt;&lt;/b&gt;" style="text;strokeColor=default;fillColor=none;align=center;verticalAlign=middle;spacingLeft=4;spacingRight=4;overflow=hidden;points=[[0,0.5],[1,0.5]];portConstraint=eastwest;rotatable=0;whiteSpace=wrap;html=1;" parent="k7ga5irRddmCWI8N22ra-14" vertex="1">
          <mxGeometry y="120" width="190" height="30" as="geometry" />
        </mxCell>
        <mxCell id="k7ga5irRddmCWI8N22ra-19" value="我是友好的智像问题咨询专家...." style="text;strokeColor=default;fillColor=none;align=center;verticalAlign=middle;spacingLeft=4;spacingRight=4;overflow=hidden;points=[[0,0.5],[1,0.5]];portConstraint=eastwest;rotatable=0;whiteSpace=wrap;html=1;dashed=1;" parent="k7ga5irRddmCWI8N22ra-14" vertex="1">
          <mxGeometry y="150" width="190" height="50" as="geometry" />
        </mxCell>
        <mxCell id="k7ga5irRddmCWI8N22ra-20" value="" style="endArrow=classic;html=1;rounded=0;" parent="1" edge="1">
          <mxGeometry width="50" height="50" relative="1" as="geometry">
            <mxPoint x="400" y="500" as="sourcePoint" />
            <mxPoint x="400" y="400" as="targetPoint" />
          </mxGeometry>
        </mxCell>
        <mxCell id="k7ga5irRddmCWI8N22ra-148" value="Final Response" style="edgeLabel;html=1;align=center;verticalAlign=middle;resizable=0;points=[];rotation=90;fontStyle=1" parent="k7ga5irRddmCWI8N22ra-20" vertex="1" connectable="0">
          <mxGeometry x="-0.3812" y="1" relative="1" as="geometry">
            <mxPoint x="1" y="-27" as="offset" />
          </mxGeometry>
        </mxCell>
        <mxCell id="k7ga5irRddmCWI8N22ra-21" value="" style="endArrow=classic;html=1;rounded=0;strokeWidth=1;" parent="1" edge="1">
          <mxGeometry width="50" height="50" relative="1" as="geometry">
            <mxPoint x="370" y="400" as="sourcePoint" />
            <mxPoint x="370" y="500" as="targetPoint" />
          </mxGeometry>
        </mxCell>
        <mxCell id="k7ga5irRddmCWI8N22ra-147" value="Results+task" style="edgeLabel;html=1;align=center;verticalAlign=middle;resizable=0;points=[];rotation=90;fontStyle=1" parent="k7ga5irRddmCWI8N22ra-21" vertex="1" connectable="0">
          <mxGeometry x="0.0188" relative="1" as="geometry">
            <mxPoint y="1" as="offset" />
          </mxGeometry>
        </mxCell>
        <mxCell id="k7ga5irRddmCWI8N22ra-22" value="&lt;b&gt;ReAct Prompting&lt;/b&gt;" style="swimlane;fontStyle=0;childLayout=stackLayout;horizontal=1;startSize=30;horizontalStack=0;resizeParent=1;resizeParentMax=0;resizeLast=0;collapsible=1;marginBottom=0;whiteSpace=wrap;html=1;align=center;fillColor=#fff2cc;strokeColor=#d6b656;" parent="1" vertex="1">
          <mxGeometry x="460" y="543" width="190" height="150" as="geometry">
            <mxRectangle x="460" y="410" width="140" height="30" as="alternateBounds" />
          </mxGeometry>
        </mxCell>
        <mxCell id="k7ga5irRddmCWI8N22ra-23" value="Step 1" style="text;strokeColor=default;fillColor=none;align=center;verticalAlign=middle;spacingLeft=4;spacingRight=4;overflow=hidden;points=[[0,0.5],[1,0.5]];portConstraint=eastwest;rotatable=0;whiteSpace=wrap;html=1;" parent="k7ga5irRddmCWI8N22ra-22" vertex="1">
          <mxGeometry y="30" width="190" height="30" as="geometry" />
        </mxCell>
        <mxCell id="k7ga5irRddmCWI8N22ra-24" value="Step 2" style="text;strokeColor=default;fillColor=none;align=center;verticalAlign=middle;spacingLeft=4;spacingRight=4;overflow=hidden;points=[[0,0.5],[1,0.5]];portConstraint=eastwest;rotatable=0;whiteSpace=wrap;html=1;" parent="k7ga5irRddmCWI8N22ra-22" vertex="1">
          <mxGeometry y="60" width="190" height="30" as="geometry" />
        </mxCell>
        <mxCell id="k7ga5irRddmCWI8N22ra-25" value="...." style="text;strokeColor=default;fillColor=none;align=center;verticalAlign=middle;spacingLeft=4;spacingRight=4;overflow=hidden;points=[[0,0.5],[1,0.5]];portConstraint=eastwest;rotatable=0;whiteSpace=wrap;html=1;" parent="k7ga5irRddmCWI8N22ra-22" vertex="1">
          <mxGeometry y="90" width="190" height="30" as="geometry" />
        </mxCell>
        <mxCell id="k7ga5irRddmCWI8N22ra-26" value="Step n" style="text;strokeColor=default;fillColor=none;align=center;verticalAlign=middle;spacingLeft=4;spacingRight=4;overflow=hidden;points=[[0,0.5],[1,0.5]];portConstraint=eastwest;rotatable=0;whiteSpace=wrap;html=1;" parent="k7ga5irRddmCWI8N22ra-22" vertex="1">
          <mxGeometry y="120" width="190" height="30" as="geometry" />
        </mxCell>
        <mxCell id="k7ga5irRddmCWI8N22ra-29" value="" style="shape=curlyBracket;whiteSpace=wrap;html=1;rounded=1;labelPosition=left;verticalLabelPosition=middle;align=right;verticalAlign=middle;" parent="1" vertex="1">
          <mxGeometry x="1080" y="751.5" width="20" height="107.5" as="geometry" />
        </mxCell>
        <mxCell id="k7ga5irRddmCWI8N22ra-30" value="&lt;b&gt;Action Group&lt;/b&gt;" style="swimlane;fontStyle=0;childLayout=stackLayout;horizontal=1;startSize=30;horizontalStack=0;resizeParent=1;resizeParentMax=0;resizeLast=0;collapsible=1;marginBottom=0;whiteSpace=wrap;html=1;align=center;fillColor=#fff2cc;strokeColor=#d6b656;" parent="1" vertex="1">
          <mxGeometry x="850" y="592" width="210" height="90" as="geometry">
            <mxRectangle x="830" y="360" width="120" height="30" as="alternateBounds" />
          </mxGeometry>
        </mxCell>
        <mxCell id="k7ga5irRddmCWI8N22ra-31" value="createZeasnCase" style="text;strokeColor=default;fillColor=none;align=center;verticalAlign=middle;spacingLeft=4;spacingRight=4;overflow=hidden;points=[[0,0.5],[1,0.5]];portConstraint=eastwest;rotatable=0;whiteSpace=wrap;html=1;fontStyle=1" parent="k7ga5irRddmCWI8N22ra-30" vertex="1">
          <mxGeometry y="30" width="210" height="30" as="geometry" />
        </mxCell>
        <mxCell id="k7ga5irRddmCWI8N22ra-34" value="...." style="text;strokeColor=default;fillColor=none;align=center;verticalAlign=middle;spacingLeft=4;spacingRight=4;overflow=hidden;points=[[0,0.5],[1,0.5]];portConstraint=eastwest;rotatable=0;whiteSpace=wrap;html=1;" parent="k7ga5irRddmCWI8N22ra-30" vertex="1">
          <mxGeometry y="60" width="210" height="30" as="geometry" />
        </mxCell>
        <mxCell id="k7ga5irRddmCWI8N22ra-35" value="&lt;b&gt;Knowledge Bases&lt;/b&gt;" style="swimlane;fontStyle=0;childLayout=stackLayout;horizontal=1;startSize=30;horizontalStack=0;resizeParent=1;resizeParentMax=0;resizeLast=0;collapsible=1;marginBottom=0;whiteSpace=wrap;html=1;align=center;fillColor=#fff2cc;strokeColor=#d6b656;" parent="1" vertex="1">
          <mxGeometry x="850" y="751" width="210" height="108" as="geometry" />
        </mxCell>
        <mxCell id="k7ga5irRddmCWI8N22ra-41" value="&lt;b&gt;RAG&lt;br&gt;&lt;br&gt;&lt;/b&gt;" style="sketch=0;outlineConnect=0;fontColor=#232F3E;gradientColor=none;fillColor=#01A88D;strokeColor=none;dashed=0;verticalLabelPosition=bottom;verticalAlign=top;align=center;html=1;fontSize=12;fontStyle=0;aspect=fixed;pointerEvents=1;shape=mxgraph.aws4.sagemaker_model;" parent="1" vertex="1">
          <mxGeometry x="750" y="739" width="50" height="50" as="geometry" />
        </mxCell>
        <mxCell id="k7ga5irRddmCWI8N22ra-42" value="" style="endArrow=classic;html=1;rounded=0;" parent="1" edge="1">
          <mxGeometry width="50" height="50" relative="1" as="geometry">
            <mxPoint x="725" y="819" as="sourcePoint" />
            <mxPoint x="825" y="819" as="targetPoint" />
          </mxGeometry>
        </mxCell>
        <mxCell id="k7ga5irRddmCWI8N22ra-44" value="Search" style="edgeLabel;html=1;align=center;verticalAlign=middle;resizable=0;points=[];" parent="k7ga5irRddmCWI8N22ra-42" vertex="1" connectable="0">
          <mxGeometry x="0.04" y="2" relative="1" as="geometry">
            <mxPoint y="1" as="offset" />
          </mxGeometry>
        </mxCell>
        <mxCell id="k7ga5irRddmCWI8N22ra-43" value="" style="endArrow=classic;html=1;rounded=0;" parent="1" edge="1">
          <mxGeometry width="50" height="50" relative="1" as="geometry">
            <mxPoint x="825" y="839" as="sourcePoint" />
            <mxPoint x="725" y="839" as="targetPoint" />
          </mxGeometry>
        </mxCell>
        <mxCell id="k7ga5irRddmCWI8N22ra-45" value="Results" style="edgeLabel;html=1;align=center;verticalAlign=middle;resizable=0;points=[];" parent="k7ga5irRddmCWI8N22ra-43" vertex="1" connectable="0">
          <mxGeometry x="0.06" y="-1" relative="1" as="geometry">
            <mxPoint as="offset" />
          </mxGeometry>
        </mxCell>
        <mxCell id="k7ga5irRddmCWI8N22ra-46" value="&lt;b&gt;AWS FAQ Data&lt;/b&gt;" style="text;html=1;align=center;verticalAlign=middle;resizable=0;points=[];autosize=1;strokeColor=none;fillColor=none;" parent="1" vertex="1">
          <mxGeometry x="898" y="804" width="110" height="30" as="geometry" />
        </mxCell>
        <mxCell id="k7ga5irRddmCWI8N22ra-47" value="" style="shape=curlyBracket;whiteSpace=wrap;html=1;rounded=1;labelPosition=left;verticalLabelPosition=middle;align=right;verticalAlign=middle;" parent="1" vertex="1">
          <mxGeometry x="710" y="399" width="20" height="470" as="geometry" />
        </mxCell>
        <mxCell id="k7ga5irRddmCWI8N22ra-103" value="&lt;b&gt;Description&lt;/b&gt;" style="swimlane;fontStyle=0;childLayout=stackLayout;horizontal=1;startSize=30;horizontalStack=0;resizeParent=1;resizeParentMax=0;resizeLast=0;collapsible=1;marginBottom=0;whiteSpace=wrap;html=1;align=center;fillColor=#9AC7BF;strokeColor=#d6b656;" parent="1" vertex="1">
          <mxGeometry x="1130" y="592" width="110" height="90" as="geometry">
            <mxRectangle x="830" y="360" width="120" height="30" as="alternateBounds" />
          </mxGeometry>
        </mxCell>
        <mxCell id="k7ga5irRddmCWI8N22ra-104" value="根据客户需求收集必要信息开启AWS技术支持案例。" style="text;strokeColor=default;fillColor=none;align=center;verticalAlign=middle;spacingLeft=4;spacingRight=4;overflow=hidden;points=[[0,0.5],[1,0.5]];portConstraint=eastwest;rotatable=0;whiteSpace=wrap;html=1;" parent="k7ga5irRddmCWI8N22ra-103" vertex="1">
          <mxGeometry y="30" width="110" height="60" as="geometry" />
        </mxCell>
        <mxCell id="k7ga5irRddmCWI8N22ra-106" value="" style="shape=curlyBracket;whiteSpace=wrap;html=1;rounded=1;labelPosition=left;verticalLabelPosition=middle;align=right;verticalAlign=middle;" parent="1" vertex="1">
          <mxGeometry x="1080" y="592" width="20" height="90" as="geometry" />
        </mxCell>
        <mxCell id="k7ga5irRddmCWI8N22ra-118" value="" style="shape=cross;whiteSpace=wrap;html=1;fillColor=#000000;" parent="1" vertex="1">
          <mxGeometry x="1258" y="637" width="9" height="9" as="geometry" />
        </mxCell>
        <mxCell id="k7ga5irRddmCWI8N22ra-119" value="CreateCase" style="outlineConnect=0;dashed=0;verticalLabelPosition=bottom;verticalAlign=top;align=center;html=1;shape=mxgraph.aws3.lambda_function;fillColor=#F58534;gradientColor=none;" parent="1" vertex="1">
          <mxGeometry x="1283" y="618" width="40" height="40" as="geometry" />
        </mxCell>
        <mxCell id="k7ga5irRddmCWI8N22ra-120" value="&lt;b&gt;Knowledge Base Instructions&lt;/b&gt;" style="swimlane;fontStyle=0;childLayout=stackLayout;horizontal=1;startSize=30;horizontalStack=0;resizeParent=1;resizeParentMax=0;resizeLast=0;collapsible=1;marginBottom=0;whiteSpace=wrap;html=1;align=center;fillColor=#9AC7BF;strokeColor=#d6b656;" parent="1" vertex="1">
          <mxGeometry x="1130" y="760" width="190" height="90" as="geometry">
            <mxRectangle x="830" y="360" width="120" height="30" as="alternateBounds" />
          </mxGeometry>
        </mxCell>
        <mxCell id="k7ga5irRddmCWI8N22ra-121" value="搜索和波音787相关的内容Knowledge base “jingamz-ab2”" style="text;strokeColor=default;fillColor=none;align=center;verticalAlign=middle;spacingLeft=4;spacingRight=4;overflow=hidden;points=[[0,0.5],[1,0.5]];portConstraint=eastwest;rotatable=0;whiteSpace=wrap;html=1;" parent="k7ga5irRddmCWI8N22ra-120" vertex="1">
          <mxGeometry y="30" width="190" height="60" as="geometry" />
        </mxCell>
        <mxCell id="k7ga5irRddmCWI8N22ra-122" value="" style="shape=cross;whiteSpace=wrap;html=1;fillColor=#000000;" parent="1" vertex="1">
          <mxGeometry x="1338" y="806" width="9" height="9" as="geometry" />
        </mxCell>
        <mxCell id="k7ga5irRddmCWI8N22ra-124" value="&lt;b&gt;OpenSearch&lt;/b&gt;" style="sketch=0;outlineConnect=0;fontColor=#232F3E;gradientColor=none;fillColor=#8C4FFF;strokeColor=none;dashed=0;verticalLabelPosition=bottom;verticalAlign=top;align=center;html=1;fontSize=12;fontStyle=0;aspect=fixed;pointerEvents=1;shape=mxgraph.aws4.opensearch_service_index;" parent="1" vertex="1">
          <mxGeometry x="1361" y="781" width="53" height="53" as="geometry" />
        </mxCell>
        <mxCell id="k7ga5irRddmCWI8N22ra-125" value="" style="aspect=fixed;sketch=0;html=1;dashed=0;whitespace=wrap;fillColor=#2875E2;strokeColor=#ffffff;points=[[0.005,0.63,0],[0.1,0.2,0],[0.9,0.2,0],[0.5,0,0],[0.995,0.63,0],[0.72,0.99,0],[0.5,1,0],[0.28,0.99,0]];shape=mxgraph.kubernetes.icon2;prIcon=api" parent="1" vertex="1">
          <mxGeometry x="760" y="592.5" width="41.15" height="39.5" as="geometry" />
        </mxCell>
        <mxCell id="k7ga5irRddmCWI8N22ra-126" value="" style="endArrow=classic;html=1;rounded=0;" parent="1" edge="1">
          <mxGeometry width="50" height="50" relative="1" as="geometry">
            <mxPoint x="735" y="642" as="sourcePoint" />
            <mxPoint x="835" y="642" as="targetPoint" />
          </mxGeometry>
        </mxCell>
        <mxCell id="k7ga5irRddmCWI8N22ra-127" value="API Calls" style="edgeLabel;html=1;align=center;verticalAlign=middle;resizable=0;points=[];" parent="k7ga5irRddmCWI8N22ra-126" vertex="1" connectable="0">
          <mxGeometry x="0.04" y="2" relative="1" as="geometry">
            <mxPoint y="1" as="offset" />
          </mxGeometry>
        </mxCell>
        <mxCell id="k7ga5irRddmCWI8N22ra-128" value="" style="endArrow=classic;html=1;rounded=0;" parent="1" edge="1">
          <mxGeometry width="50" height="50" relative="1" as="geometry">
            <mxPoint x="835" y="662" as="sourcePoint" />
            <mxPoint x="735" y="662" as="targetPoint" />
          </mxGeometry>
        </mxCell>
        <mxCell id="k7ga5irRddmCWI8N22ra-129" value="Results" style="edgeLabel;html=1;align=center;verticalAlign=middle;resizable=0;points=[];" parent="k7ga5irRddmCWI8N22ra-128" vertex="1" connectable="0">
          <mxGeometry x="0.06" y="-1" relative="1" as="geometry">
            <mxPoint as="offset" />
          </mxGeometry>
        </mxCell>
        <mxCell id="k7ga5irRddmCWI8N22ra-142" value="2" style="ellipse;whiteSpace=wrap;html=1;aspect=fixed;strokeWidth=2;fontFamily=Tahoma;spacingBottom=4;spacingRight=2;strokeColor=#d3d3d3;fontStyle=1" parent="1" vertex="1">
          <mxGeometry x="670" y="273" width="20" height="20" as="geometry" />
        </mxCell>
        <mxCell id="k7ga5irRddmCWI8N22ra-143" value="3" style="ellipse;whiteSpace=wrap;html=1;aspect=fixed;strokeWidth=2;fontFamily=Tahoma;spacingBottom=4;spacingRight=2;strokeColor=#d3d3d3;fontStyle=1" parent="1" vertex="1">
          <mxGeometry x="430" y="548" width="20" height="20" as="geometry" />
        </mxCell>
        <mxCell id="k7ga5irRddmCWI8N22ra-144" value="4" style="ellipse;whiteSpace=wrap;html=1;aspect=fixed;strokeWidth=2;fontFamily=Tahoma;spacingBottom=4;spacingRight=2;strokeColor=#d3d3d3;fontStyle=1" parent="1" vertex="1">
          <mxGeometry x="820" y="754" width="20" height="20" as="geometry" />
        </mxCell>
        <mxCell id="k7ga5irRddmCWI8N22ra-146" value="5" style="ellipse;whiteSpace=wrap;html=1;aspect=fixed;strokeWidth=2;fontFamily=Tahoma;spacingBottom=4;spacingRight=2;strokeColor=#d3d3d3;fontStyle=1" parent="1" vertex="1">
          <mxGeometry x="820" y="592" width="20" height="20" as="geometry" />
        </mxCell>
        <mxCell id="k7ga5irRddmCWI8N22ra-151" value="" style="endArrow=classic;html=1;rounded=0;exitX=0.447;exitY=1.07;exitDx=0;exitDy=0;exitPerimeter=0;edgeStyle=orthogonalEdgeStyle;curved=1;entryX=0.484;entryY=1.133;entryDx=0;entryDy=0;entryPerimeter=0;" parent="1" source="k7ga5irRddmCWI8N22ra-19" target="k7ga5irRddmCWI8N22ra-26" edge="1">
          <mxGeometry width="50" height="50" relative="1" as="geometry">
            <mxPoint x="180" y="590" as="sourcePoint" />
            <mxPoint x="360" y="800" as="targetPoint" />
            <Array as="points">
              <mxPoint x="150" y="734" />
              <mxPoint x="150" y="770" />
              <mxPoint x="552" y="770" />
            </Array>
          </mxGeometry>
        </mxCell>
        <mxCell id="utE1ZG835E7h7KhC1RT6-1" value="&lt;b&gt;Action Group&lt;/b&gt;" style="swimlane;fontStyle=0;childLayout=stackLayout;horizontal=1;startSize=30;horizontalStack=0;resizeParent=1;resizeParentMax=0;resizeLast=0;collapsible=1;marginBottom=0;whiteSpace=wrap;html=1;align=center;fillColor=#fff2cc;strokeColor=#d6b656;" parent="1" vertex="1">
          <mxGeometry x="860" y="391" width="210" height="90" as="geometry">
            <mxRectangle x="830" y="360" width="120" height="30" as="alternateBounds" />
          </mxGeometry>
        </mxCell>
        <mxCell id="utE1ZG835E7h7KhC1RT6-2" value="getMovieUrl" style="text;strokeColor=default;fillColor=none;align=center;verticalAlign=middle;spacingLeft=4;spacingRight=4;overflow=hidden;points=[[0,0.5],[1,0.5]];portConstraint=eastwest;rotatable=0;whiteSpace=wrap;html=1;fontStyle=1" parent="utE1ZG835E7h7KhC1RT6-1" vertex="1">
          <mxGeometry y="30" width="210" height="30" as="geometry" />
        </mxCell>
        <mxCell id="utE1ZG835E7h7KhC1RT6-3" value="...." style="text;strokeColor=default;fillColor=none;align=center;verticalAlign=middle;spacingLeft=4;spacingRight=4;overflow=hidden;points=[[0,0.5],[1,0.5]];portConstraint=eastwest;rotatable=0;whiteSpace=wrap;html=1;" parent="utE1ZG835E7h7KhC1RT6-1" vertex="1">
          <mxGeometry y="60" width="210" height="30" as="geometry" />
        </mxCell>
        <mxCell id="utE1ZG835E7h7KhC1RT6-4" value="&lt;b&gt;Description&lt;/b&gt;" style="swimlane;fontStyle=0;childLayout=stackLayout;horizontal=1;startSize=30;horizontalStack=0;resizeParent=1;resizeParentMax=0;resizeLast=0;collapsible=1;marginBottom=0;whiteSpace=wrap;html=1;align=center;fillColor=#9AC7BF;strokeColor=#d6b656;" parent="1" vertex="1">
          <mxGeometry x="1140" y="391" width="110" height="90" as="geometry">
            <mxRectangle x="830" y="360" width="120" height="30" as="alternateBounds" />
          </mxGeometry>
        </mxCell>
        <mxCell id="utE1ZG835E7h7KhC1RT6-5" value="根据客户输入查询影片播放URL" style="text;strokeColor=default;fillColor=none;align=center;verticalAlign=middle;spacingLeft=4;spacingRight=4;overflow=hidden;points=[[0,0.5],[1,0.5]];portConstraint=eastwest;rotatable=0;whiteSpace=wrap;html=1;" parent="utE1ZG835E7h7KhC1RT6-4" vertex="1">
          <mxGeometry y="30" width="110" height="60" as="geometry" />
        </mxCell>
        <mxCell id="utE1ZG835E7h7KhC1RT6-6" value="" style="shape=curlyBracket;whiteSpace=wrap;html=1;rounded=1;labelPosition=left;verticalLabelPosition=middle;align=right;verticalAlign=middle;" parent="1" vertex="1">
          <mxGeometry x="1090" y="391" width="20" height="90" as="geometry" />
        </mxCell>
        <mxCell id="utE1ZG835E7h7KhC1RT6-7" value="" style="shape=cross;whiteSpace=wrap;html=1;fillColor=#000000;" parent="1" vertex="1">
          <mxGeometry x="1261" y="435" width="9" height="9" as="geometry" />
        </mxCell>
        <mxCell id="utE1ZG835E7h7KhC1RT6-12" value="SearchMovies" style="outlineConnect=0;dashed=0;verticalLabelPosition=bottom;verticalAlign=top;align=center;html=1;shape=mxgraph.aws3.lambda_function;fillColor=#F58534;gradientColor=none;" parent="1" vertex="1">
          <mxGeometry x="1289" y="417" width="40" height="40" as="geometry" />
        </mxCell>
        <mxCell id="utE1ZG835E7h7KhC1RT6-13" value="" style="aspect=fixed;sketch=0;html=1;dashed=0;whitespace=wrap;fillColor=#2875E2;strokeColor=#ffffff;points=[[0.005,0.63,0],[0.1,0.2,0],[0.9,0.2,0],[0.5,0,0],[0.995,0.63,0],[0.72,0.99,0],[0.5,1,0],[0.28,0.99,0]];shape=mxgraph.kubernetes.icon2;prIcon=api" parent="1" vertex="1">
          <mxGeometry x="770" y="391.5" width="41.15" height="39.5" as="geometry" />
        </mxCell>
        <mxCell id="utE1ZG835E7h7KhC1RT6-14" value="" style="endArrow=classic;html=1;rounded=0;" parent="1" edge="1">
          <mxGeometry width="50" height="50" relative="1" as="geometry">
            <mxPoint x="745" y="432" as="sourcePoint" />
            <mxPoint x="845" y="432" as="targetPoint" />
          </mxGeometry>
        </mxCell>
        <mxCell id="utE1ZG835E7h7KhC1RT6-15" value="API Calls" style="edgeLabel;html=1;align=center;verticalAlign=middle;resizable=0;points=[];" parent="utE1ZG835E7h7KhC1RT6-14" vertex="1" connectable="0">
          <mxGeometry x="0.04" y="2" relative="1" as="geometry">
            <mxPoint y="10" as="offset" />
          </mxGeometry>
        </mxCell>
        <mxCell id="utE1ZG835E7h7KhC1RT6-16" value="" style="endArrow=classic;html=1;rounded=0;" parent="1" edge="1">
          <mxGeometry width="50" height="50" relative="1" as="geometry">
            <mxPoint x="845" y="452" as="sourcePoint" />
            <mxPoint x="745" y="452" as="targetPoint" />
          </mxGeometry>
        </mxCell>
        <mxCell id="utE1ZG835E7h7KhC1RT6-17" value="Results" style="edgeLabel;html=1;align=center;verticalAlign=middle;resizable=0;points=[];" parent="utE1ZG835E7h7KhC1RT6-16" vertex="1" connectable="0">
          <mxGeometry x="0.06" y="-1" relative="1" as="geometry">
            <mxPoint y="9" as="offset" />
          </mxGeometry>
        </mxCell>
        <mxCell id="utE1ZG835E7h7KhC1RT6-18" value="4" style="ellipse;whiteSpace=wrap;html=1;aspect=fixed;strokeWidth=2;fontFamily=Tahoma;spacingBottom=4;spacingRight=2;strokeColor=#d3d3d3;fontStyle=1" parent="1" vertex="1">
          <mxGeometry x="830" y="391" width="20" height="20" as="geometry" />
        </mxCell>
        <mxCell id="utE1ZG835E7h7KhC1RT6-19" value="Movies" style="sketch=0;points=[[0,0,0],[0.25,0,0],[0.5,0,0],[0.75,0,0],[1,0,0],[0,1,0],[0.25,1,0],[0.5,1,0],[0.75,1,0],[1,1,0],[0,0.25,0],[0,0.5,0],[0,0.75,0],[1,0.25,0],[1,0.5,0],[1,0.75,0]];outlineConnect=0;fontColor=#232F3E;fillColor=#C925D1;strokeColor=#ffffff;dashed=0;verticalLabelPosition=bottom;verticalAlign=top;align=center;html=1;fontSize=12;fontStyle=0;aspect=fixed;shape=mxgraph.aws4.resourceIcon;resIcon=mxgraph.aws4.rds;" parent="1" vertex="1">
          <mxGeometry x="1386" y="412" width="53" height="53" as="geometry" />
        </mxCell>
        <mxCell id="utE1ZG835E7h7KhC1RT6-20" value="" style="shape=cross;whiteSpace=wrap;html=1;fillColor=#000000;" parent="1" vertex="1">
          <mxGeometry x="1346" y="434" width="9" height="9" as="geometry" />
        </mxCell>
        <mxCell id="utE1ZG835E7h7KhC1RT6-21" value="&lt;b&gt;Amazon Transcribe&lt;/b&gt;" style="sketch=0;points=[[0,0,0],[0.25,0,0],[0.5,0,0],[0.75,0,0],[1,0,0],[0,1,0],[0.25,1,0],[0.5,1,0],[0.75,1,0],[1,1,0],[0,0.25,0],[0,0.5,0],[0,0.75,0],[1,0.25,0],[1,0.5,0],[1,0.75,0]];outlineConnect=0;fontColor=#232F3E;fillColor=#01A88D;strokeColor=#ffffff;dashed=0;verticalLabelPosition=bottom;verticalAlign=top;align=center;html=1;fontSize=12;fontStyle=0;aspect=fixed;shape=mxgraph.aws4.resourceIcon;resIcon=mxgraph.aws4.transcribe;" parent="1" vertex="1">
          <mxGeometry x="542.5" y="183" width="57" height="57" as="geometry" />
        </mxCell>
        <mxCell id="utE1ZG835E7h7KhC1RT6-22" value="" style="endArrow=classic;html=1;rounded=0;edgeStyle=orthogonalEdgeStyle;curved=1;entryX=0;entryY=0.5;entryDx=0;entryDy=0;entryPerimeter=0;" parent="1" source="k7ga5irRddmCWI8N22ra-6" target="utE1ZG835E7h7KhC1RT6-21" edge="1">
          <mxGeometry width="50" height="50" relative="1" as="geometry">
            <mxPoint x="810" y="500" as="sourcePoint" />
            <mxPoint x="530" y="220" as="targetPoint" />
            <Array as="points">
              <mxPoint x="385" y="216" />
              <mxPoint x="531" y="216" />
            </Array>
          </mxGeometry>
        </mxCell>
        <mxCell id="utE1ZG835E7h7KhC1RT6-26" value="6" style="ellipse;whiteSpace=wrap;html=1;aspect=fixed;strokeWidth=2;fontFamily=Tahoma;spacingBottom=4;spacingRight=2;strokeColor=#d3d3d3;fontStyle=1" parent="1" vertex="1">
          <mxGeometry x="320" y="179" width="20" height="20" as="geometry" />
        </mxCell>
        <mxCell id="utE1ZG835E7h7KhC1RT6-28" value="&lt;font style=&quot;font-size: 12px;&quot;&gt;&lt;b&gt;Question&lt;/b&gt;: “&lt;font color=&quot;#3333ff&quot;&gt;请播放电影《热辣滚烫》&lt;/font&gt;”&lt;/font&gt;" style="rounded=1;whiteSpace=wrap;html=1;fillColor=#CCCCFF;" parent="1" vertex="1">
          <mxGeometry x="460" y="60" width="230" height="30" as="geometry" />
        </mxCell>
        <mxCell id="utE1ZG835E7h7KhC1RT6-29" value="&lt;b&gt;OR&lt;/b&gt;" style="text;html=1;align=center;verticalAlign=middle;whiteSpace=wrap;rounded=0;" parent="1" vertex="1">
          <mxGeometry x="542.5" y="90" width="60" height="30" as="geometry" />
        </mxCell>
        <mxCell id="utE1ZG835E7h7KhC1RT6-30" value="&lt;font style=&quot;font-size: 12px;&quot;&gt;&lt;b&gt;Question&lt;/b&gt;: “&lt;font color=&quot;#3333ff&quot;&gt;波音787的航程是多少&lt;/font&gt;”&lt;/font&gt;" style="rounded=1;whiteSpace=wrap;html=1;fillColor=#CCCCFF;" parent="1" vertex="1">
          <mxGeometry x="100" y="90" width="230" height="30" as="geometry" />
        </mxCell>
        <mxCell id="IR_KvxWy5Y9YqPARQ_4T-2" value="&lt;b&gt;Input&lt;/b&gt;" style="image;aspect=fixed;perimeter=ellipsePerimeter;html=1;align=center;shadow=0;dashed=0;spacingTop=3;image=img/lib/active_directory/input_output_filter.svg;" vertex="1" parent="1">
          <mxGeometry x="517" y="328" width="33.5" height="50" as="geometry" />
        </mxCell>
        <mxCell id="IR_KvxWy5Y9YqPARQ_4T-4" value="&lt;b&gt;Output&lt;/b&gt;" style="image;aspect=fixed;perimeter=ellipsePerimeter;html=1;align=center;shadow=0;dashed=0;spacingTop=3;image=img/lib/active_directory/input_output_filter.svg;" vertex="1" parent="1">
          <mxGeometry x="236.5" y="333" width="33.5" height="50" as="geometry" />
        </mxCell>
        <mxCell id="IR_KvxWy5Y9YqPARQ_4T-5" value="" style="endArrow=classic;html=1;rounded=0;exitX=1;exitY=0.5;exitDx=0;exitDy=0;exitPerimeter=0;entryX=1;entryY=0.5;entryDx=0;entryDy=0;edgeStyle=orthogonalEdgeStyle;curved=1;" edge="1" parent="1" source="utE1ZG835E7h7KhC1RT6-21" target="IR_KvxWy5Y9YqPARQ_4T-1">
          <mxGeometry width="50" height="50" relative="1" as="geometry">
            <mxPoint x="820" y="480" as="sourcePoint" />
            <mxPoint x="870" y="430" as="targetPoint" />
            <Array as="points">
              <mxPoint x="650" y="212" />
              <mxPoint x="650" y="358" />
            </Array>
          </mxGeometry>
        </mxCell>
        <mxCell id="IR_KvxWy5Y9YqPARQ_4T-6" value="" style="endArrow=classic;html=1;rounded=0;exitX=0;exitY=0.5;exitDx=0;exitDy=0;edgeStyle=orthogonalEdgeStyle;curved=1;" edge="1" parent="1" source="IR_KvxWy5Y9YqPARQ_4T-1" target="k7ga5irRddmCWI8N22ra-6">
          <mxGeometry width="50" height="50" relative="1" as="geometry">
            <mxPoint x="820" y="480" as="sourcePoint" />
            <mxPoint x="870" y="430" as="targetPoint" />
            <Array as="points">
              <mxPoint x="120" y="358" />
              <mxPoint x="120" y="222" />
              <mxPoint x="370" y="222" />
            </Array>
          </mxGeometry>
        </mxCell>
      </root>
    </mxGraphModel>
  </diagram>
</mxfile>
